<svg xmlns="http://www.w3.org/2000/svg" width="430" height="860" viewBox="0 0 430 860" role="img" aria-label="EquityFlow mobile preview">
  <rect width="430" height="860" fill="#f7f5f0"/>
  <rect x="16" y="18" width="398" height="56" rx="8" fill="#ffffff" stroke="#ddd8ce"/>
  <text x="34" y="53" fill="#17201a" font-family="Inter, Arial" font-size="18" font-weight="800">EquityFlow</text>
  <rect x="336" y="29" width="58" height="34" rx="7" fill="#ffffff" stroke="#ddd8ce"/>
  <text x="350" y="51" fill="#285e4d" font-family="Inter, Arial" font-size="13" font-weight="800">Menu</text>
  <text x="24" y="132" fill="#b46a35" font-family="Inter, Arial" font-size="12" font-weight="800">MOBILE READY</text>
  <text x="24" y="178" fill="#17201a" font-family="Inter, Arial" font-size="34" font-weight="800">Portfolio desk</text>
  <text x="24" y="218" fill="#17201a" font-family="Inter, Arial" font-size="34" font-weight="800">on any screen.</text>
  <rect x="24" y="266" width="382" height="106" rx="8" fill="#ffffff" stroke="#ddd8ce"/>
  <text x="44" y="306" fill="#687067" font-family="Inter, Arial" font-size="12" font-weight="800">PORTFOLIO VALUE</text>
  <text x="44" y="340" fill="#17201a" font-family="Inter, Arial" font-size="28" font-weight="800">INR 3.42L</text>
  <rect x="24" y="392" width="382" height="210" rx="8" fill="#ffffff" stroke="#ddd8ce"/>
  <polyline points="54,548 112,512 170,526 228,464 286,488 376,430" fill="none" stroke="#285e4d" stroke-width="4"/>
  <rect x="24" y="622" width="382" height="184" rx="8" fill="#ffffff" stroke="#ddd8ce"/>
  <text x="44" y="662" fill="#17201a" font-family="Inter, Arial" font-size="20" font-weight="800">Orders</text>
  <text x="44" y="706" fill="#16834a" font-family="Inter, Arial" font-size="15" font-weight="800">BUY INFY EXECUTED</text>
  <text x="44" y="742" fill="#b43b3b" font-family="Inter, Arial" font-size="15" font-weight="800">SELL ADANIGREEN REJECTED</text>
</svg>
