<svg xmlns="http://www.w3.org/2000/svg" width="1200" height="760" viewBox="0 0 1200 760" role="img" aria-label="EquityFlow stock detail page preview">
  <rect width="1200" height="760" fill="#f7f5f0"/>
  <rect x="0" y="0" width="216" height="760" fill="#ffffff" stroke="#ddd8ce"/>
  <text x="252" y="54" fill="#285e4d" font-family="Inter, Arial" font-size="48" font-weight="800">ADANIENT</text>
  <text x="252" y="88" fill="#17201a" font-family="Inter, Arial" font-size="20" font-weight="700">Adani Enterprises Ltd</text>
  <text x="604" y="60" fill="#17201a" font-family="Inter, Arial" font-size="36" font-weight="800">INR 3,188.10</text>
  <text x="604" y="92" fill="#16834a" font-family="Inter, Arial" font-size="18" font-weight="800">+0.92% today</text>
  <rect x="994" y="42" width="62" height="38" rx="7" fill="#285e4d"/>
  <text x="1012" y="66" fill="#ffffff" font-family="Inter, Arial" font-size="13" font-weight="800">BUY</text>
  <rect x="1068" y="42" width="62" height="38" rx="7" fill="#f7e8e6" stroke="#edd0cc"/>
  <text x="1086" y="66" fill="#b43b3b" font-family="Inter, Arial" font-size="13" font-weight="800">SELL</text>
  <rect x="252" y="128" width="892" height="392" rx="8" fill="#ffffff" stroke="#ddd8ce"/>
  <polyline points="292,444 416,394 540,420 664,322 788,350 912,246 1084,286" fill="none" stroke="#285e4d" stroke-width="5"/>
  <rect x="252" y="550" width="430" height="150" rx="8" fill="#ffffff" stroke="#ddd8ce"/>
  <text x="278" y="590" fill="#17201a" font-family="Inter, Arial" font-size="20" font-weight="800">About Company</text>
  <text x="278" y="628" fill="#687067" font-family="Inter, Arial" font-size="15">Sector · Industry · Market Cap · Currency</text>
  <rect x="714" y="550" width="430" height="150" rx="8" fill="#ffffff" stroke="#ddd8ce"/>
  <text x="740" y="590" fill="#17201a" font-family="Inter, Arial" font-size="20" font-weight="800">Your Position</text>
  <text x="740" y="628" fill="#16834a" font-family="Inter, Arial" font-size="18" font-weight="800">P&amp;L +INR 4,210</text>
</svg>
